<svg xmlns="http://www.w3.org/2000/svg" viewBox="0 -0.5 24 24" width="24" height="24">
<path stroke="currentColor" d="M4 2h16M4 3h16M2 4h2M20 4h2M2 5h2M20 5h2M2 6h2M20 6h2M2 7h2M20 7h2M2 8h2M20 8h2M2 9h2M8 9h8M20 9h2M2 10h2M8 10h8M20 10h2M2 11h2M8 11h2M14 11h2M20 11h2M2 12h2M8 12h2M14 12h2M20 12h2M2 13h2M8 13h2M14 13h2M20 13h2M2 14h2M8 14h2M14 14h2M20 14h2M2 15h2M8 15h2M14 15h2M20 15h2M2 16h2M8 16h2M14 16h2M20 16h2M2 17h2M8 17h2M14 17h2M20 17h2M2 18h2M8 18h2M14 18h2M20 18h2M2 19h2M8 19h2M14 19h2M20 19h2M2 20h8M14 20h8M2 21h8M14 21h8" />
</svg>